<svg width="24" height="25" viewBox="0 0 24 25" fill="none" xmlns="http://www.w3.org/2000/svg">
    <path d="M5 22.6829C4.45 22.6829 3.97917 22.487 3.5875 22.0954C3.19583 21.7037 3 21.2329 3 20.6829V6.68286H5V20.6829H16V22.6829H5ZM9 18.6829C8.45 18.6829 7.97917 18.487 7.5875 18.0954C7.19583 17.7037 7 17.2329 7 16.6829V4.68286C7 4.13286 7.19583 3.66203 7.5875 3.27036C7.97917 2.87869 8.45 2.68286 9 2.68286H18C18.55 2.68286 19.0208 2.87869 19.4125 3.27036C19.8042 3.66203 20 4.13286 20 4.68286V16.6829C20 17.2329 19.8042 17.7037 19.4125 18.0954C19.0208 18.487 18.55 18.6829 18 18.6829H9ZM9 16.6829H18V4.68286H9V16.6829Z" fill="currentColor"/>
    </svg>
    