<svg width="24" height="25" viewBox="0 0 24 25" fill="none" xmlns="http://www.w3.org/2000/svg">
    <path d="M6 22.6829C5.16667 22.6829 4.45833 22.3912 3.875 21.8079C3.29167 21.2245 3 20.5162 3 19.6829V16.6829H6V2.68286H21V11.7829C20.6667 11.6995 20.3292 11.6745 19.9875 11.7079C19.6458 11.7412 19.3167 11.8245 19 11.9579V4.68286H8V16.6829H14L12 18.6829H5V19.6829C5 19.9662 5.09583 20.2037 5.2875 20.3954C5.47917 20.587 5.71667 20.6829 6 20.6829H12V22.6829H6ZM14 22.6829V19.5079L18.3 15.2079L19.375 16.2829L15.5 20.1329V21.1829H16.55L20.425 17.3329L21.475 18.3829L17.175 22.6829H14ZM21.475 18.3829L18.3 15.2079L19.55 13.9579C19.7333 13.7745 19.9667 13.6829 20.25 13.6829C20.5333 13.6829 20.7667 13.7745 20.95 13.9579L22.725 15.7329C22.9083 15.9162 23 16.1495 23 16.4329C23 16.7162 22.9083 16.9495 22.725 17.1329L21.475 18.3829ZM9 9.68286V7.68286H18V9.68286H9ZM9 12.6829V10.6829H18V12.6829H9Z" fill="currentColor"/>
    </svg>
    