<svg xmlns="http://www.w3.org/2000/svg" fill="none" viewBox="0 0 24 25"><path fill="currentColor" d="M11 17.683h2v-6h-2v6Zm1-8c.283 0 .52-.096.713-.288A.967.967 0 0 0 13 8.683a.967.967 0 0 0-.287-.713.968.968 0 0 0-.713-.287.968.968 0 0 0-.713.287.967.967 0 0 0-.287.713c0 .283.096.52.287.712.192.192.43.288.713.288Zm0 13a9.738 9.738 0 0 1-3.9-.788 10.099 10.099 0 0 1-3.175-2.137 10.1 10.1 0 0 1-2.137-3.175 9.738 9.738 0 0 1-.788-3.9c0-1.383.263-2.683.788-3.9a10.099 10.099 0 0 1 2.137-3.175c.9-.9 1.958-1.613 3.175-2.138a9.738 9.738 0 0 1 3.9-.787c1.383 0 2.683.262 3.9.787a10.098 10.098 0 0 1 3.175 2.138c.9.9 1.613 1.958 2.137 3.175a9.738 9.738 0 0 1 .788 3.9 9.738 9.738 0 0 1-.788 3.9 10.1 10.1 0 0 1-2.137 3.175c-.9.9-1.958 1.612-3.175 2.137a9.738 9.738 0 0 1-3.9.788Zm0-2c2.233 0 4.125-.775 5.675-2.325 1.55-1.55 2.325-3.442 2.325-5.675 0-2.233-.775-4.125-2.325-5.675-1.55-1.55-3.442-2.325-5.675-2.325-2.233 0-4.125.775-5.675 2.325C4.775 8.558 4 10.45 4 12.683c0 2.233.775 4.125 2.325 5.675 1.55 1.55 3.442 2.325 5.675 2.325Z"/></svg>