<svg xmlns="http://www.w3.org/2000/svg" fill="none" viewBox="0 0 24 25"><path fill="currentColor" d="M6 22.683c-.55 0-1.02-.196-1.412-.588A1.926 1.926 0 0 1 4 20.683v-10c0-.55.196-1.021.588-1.413A1.926 1.926 0 0 1 6 8.683h1v-2C7 5.3 7.487 4.12 8.463 3.145 9.438 2.17 10.617 1.683 12 1.683s2.563.487 3.537 1.462C16.512 4.12 17 5.3 17 6.683v2h1c.55 0 1.02.196 1.413.587.391.392.587.863.587 1.413v10c0 .55-.196 1.02-.587 1.412a1.926 1.926 0 0 1-1.413.588H6Zm0-2h12v-10H6v10Zm6-3c.55 0 1.02-.196 1.412-.588.392-.391.588-.862.588-1.412 0-.55-.196-1.021-.588-1.413A1.926 1.926 0 0 0 12 13.683c-.55 0-1.02.196-1.412.587A1.926 1.926 0 0 0 10 15.683c0 .55.196 1.02.588 1.412.391.392.862.588 1.412.588Zm-3-9h6v-2c0-.833-.292-1.542-.875-2.125A2.893 2.893 0 0 0 12 3.683c-.833 0-1.542.292-2.125.875A2.893 2.893 0 0 0 9 6.683v2Z"/></svg>