<svg xmlns="http://www.w3.org/2000/svg" width="20" height="21" viewBox="0 0 20 21" fill="none">
    <path d="M3.33341 17.1663C2.87508 17.1663 2.48272 17.0031 2.15633 16.6768C1.82994 16.3504 1.66675 15.958 1.66675 15.4997V5.49967C1.66675 5.04134 1.82994 4.64898 2.15633 4.32259C2.48272 3.9962 2.87508 3.83301 3.33341 3.83301H16.6667C17.1251 3.83301 17.5174 3.9962 17.8438 4.32259C18.1702 4.64898 18.3334 5.04134 18.3334 5.49967V15.4997C18.3334 15.958 18.1702 16.3504 17.8438 16.6768C17.5174 17.0031 17.1251 17.1663 16.6667 17.1663H3.33341ZM10.0001 11.333L3.33341 7.16634V15.4997H16.6667V7.16634L10.0001 11.333ZM10.0001 9.66634L16.6667 5.49967H3.33341L10.0001 9.66634ZM3.33341 7.16634V5.49967V15.4997V7.16634Z" fill="currentColor"/>
  </svg>