<svg width="24" height="25" viewBox="0 0 24 25" fill="none" xmlns="http://www.w3.org/2000/svg">
    <path d="M1 21.6829L12 2.68286L23 21.6829H1ZM4.45 19.6829H19.55L12 6.68286L4.45 19.6829ZM12 18.6829C12.2833 18.6829 12.5208 18.587 12.7125 18.3954C12.9042 18.2037 13 17.9662 13 17.6829C13 17.3995 12.9042 17.162 12.7125 16.9704C12.5208 16.7787 12.2833 16.6829 12 16.6829C11.7167 16.6829 11.4792 16.7787 11.2875 16.9704C11.0958 17.162 11 17.3995 11 17.6829C11 17.9662 11.0958 18.2037 11.2875 18.3954C11.4792 18.587 11.7167 18.6829 12 18.6829ZM11 15.6829H13V10.6829H11V15.6829Z" fill="currentColor"/>
    </svg>
    