<svg xmlns="http://www.w3.org/2000/svg" width="20" height="21" viewBox="0 0 20 21" fill="none">
    <path d="M10.0001 18.8337C8.86119 18.8337 7.7848 18.6149 6.77092 18.1774C5.75703 17.7399 4.87161 17.1427 4.11466 16.3857C3.35772 15.6288 2.7605 14.7434 2.323 13.7295C1.8855 12.7156 1.66675 11.6392 1.66675 10.5003C1.66675 9.34755 1.8855 8.26769 2.323 7.26074C2.7605 6.2538 3.35772 5.37185 4.11466 4.61491C4.87161 3.85796 5.75703 3.26074 6.77092 2.82324C7.7848 2.38574 8.86119 2.16699 10.0001 2.16699C11.1529 2.16699 12.2327 2.38574 13.2397 2.82324C14.2466 3.26074 15.1286 3.85796 15.8855 4.61491C16.6424 5.37185 17.2397 6.2538 17.6772 7.26074C18.1147 8.26769 18.3334 9.34755 18.3334 10.5003C18.3334 11.6392 18.1147 12.7156 17.6772 13.7295C17.2397 14.7434 16.6424 15.6288 15.8855 16.3857C15.1286 17.1427 14.2466 17.7399 13.2397 18.1774C12.2327 18.6149 11.1529 18.8337 10.0001 18.8337ZM10.0001 17.1253C10.3612 16.6253 10.6737 16.1045 10.9376 15.5628C11.2015 15.0212 11.4167 14.4448 11.5834 13.8337H8.41675C8.58342 14.4448 8.79869 15.0212 9.06258 15.5628C9.32647 16.1045 9.63897 16.6253 10.0001 17.1253ZM7.83342 16.792C7.58342 16.3337 7.36467 15.858 7.17717 15.3649C6.98967 14.8719 6.83342 14.3614 6.70842 13.8337H4.25008C4.65286 14.5281 5.15633 15.1323 5.7605 15.6462C6.36467 16.16 7.05564 16.542 7.83342 16.792ZM12.1667 16.792C12.9445 16.542 13.6355 16.16 14.2397 15.6462C14.8438 15.1323 15.3473 14.5281 15.7501 13.8337H13.2917C13.1667 14.3614 13.0105 14.8719 12.823 15.3649C12.6355 15.858 12.4167 16.3337 12.1667 16.792ZM3.54175 12.167H6.37508C6.33342 11.8892 6.30217 11.6149 6.28133 11.3441C6.2605 11.0732 6.25008 10.792 6.25008 10.5003C6.25008 10.2087 6.2605 9.92741 6.28133 9.65658C6.30217 9.38574 6.33342 9.11144 6.37508 8.83366H3.54175C3.4723 9.11144 3.42022 9.38574 3.3855 9.65658C3.35078 9.92741 3.33341 10.2087 3.33341 10.5003C3.33341 10.792 3.35078 11.0732 3.3855 11.3441C3.42022 11.6149 3.4723 11.8892 3.54175 12.167ZM8.04175 12.167H11.9584C12.0001 11.8892 12.0313 11.6149 12.0522 11.3441C12.073 11.0732 12.0834 10.792 12.0834 10.5003C12.0834 10.2087 12.073 9.92741 12.0522 9.65658C12.0313 9.38574 12.0001 9.11144 11.9584 8.83366H8.04175C8.00008 9.11144 7.96883 9.38574 7.948 9.65658C7.92717 9.92741 7.91675 10.2087 7.91675 10.5003C7.91675 10.792 7.92717 11.0732 7.948 11.3441C7.96883 11.6149 8.00008 11.8892 8.04175 12.167ZM13.6251 12.167H16.4584C16.5279 11.8892 16.5799 11.6149 16.6147 11.3441C16.6494 11.0732 16.6667 10.792 16.6667 10.5003C16.6667 10.2087 16.6494 9.92741 16.6147 9.65658C16.5799 9.38574 16.5279 9.11144 16.4584 8.83366H13.6251C13.6667 9.11144 13.698 9.38574 13.7188 9.65658C13.7397 9.92741 13.7501 10.2087 13.7501 10.5003C13.7501 10.792 13.7397 11.0732 13.7188 11.3441C13.698 11.6149 13.6667 11.8892 13.6251 12.167ZM13.2917 7.16699H15.7501C15.3473 6.47255 14.8438 5.86838 14.2397 5.35449C13.6355 4.8406 12.9445 4.45866 12.1667 4.20866C12.4167 4.66699 12.6355 5.14269 12.823 5.63574C13.0105 6.1288 13.1667 6.63921 13.2917 7.16699ZM8.41675 7.16699H11.5834C11.4167 6.55588 11.2015 5.97949 10.9376 5.43783C10.6737 4.89616 10.3612 4.37533 10.0001 3.87533C9.63897 4.37533 9.32647 4.89616 9.06258 5.43783C8.79869 5.97949 8.58342 6.55588 8.41675 7.16699ZM4.25008 7.16699H6.70842C6.83342 6.63921 6.98967 6.1288 7.17717 5.63574C7.36467 5.14269 7.58342 4.66699 7.83342 4.20866C7.05564 4.45866 6.36467 4.8406 5.7605 5.35449C5.15633 5.86838 4.65286 6.47255 4.25008 7.16699Z" fill="currentColor"/>
  </svg>