<svg xmlns="http://www.w3.org/2000/svg" width="160" height="37" fill="none"><path fill="url(#a)" fill-rule="evenodd" d="M14.4995 0c-2.6782 0-4.84926 2.17109-4.84926 4.84927s2.17106 4.84927 4.84926 4.84927 4.8493-2.17109 4.8493-4.84927S17.1777 0 14.4995 0ZM9.58763 12.7806c.00003.3003.02707.5943.07883.8796.39964 2.2371 2.31764 3.9482 4.64994 4.0292.0642.0067.1294.0101.1953.0101.0473 0 .0944.0007.1413.0021.2462-.0077.4878-.0335.7236-.0763 2.2375-.3993 3.9491-2.3175 4.03-4.6501.0067-.0642.0102-.1293.0102-.1953 0-2.5971 2.067-4.71146 4.6456-4.78769.0531.00457.1068.00689.1611.00689.8127 0 1.5782.20244 2.2487.55963 1.5027.80823 2.5242 2.39537 2.5242 4.22117 0 .0731.0043.1452.0125.2161-.1085 2.5493-2.2095 4.5827-4.7854 4.5827l-.0041.0001c-.3 0-.5937.027-.8788.0786-2.2375.3994-3.949 2.3175-4.03 4.6501a1.88227 1.88227 0 0 0-.0101.1954c0 .0472-.0007.0943-.0021.1413.0078.248.0339.4913.0772.7287.4014 2.235 2.3184 3.9439 4.6492 4.0248a1.853 1.853 0 0 0 .1953.0102c2.5971 0 4.7115 2.067 4.7877 4.6456a1.86584 1.86584 0 0 0-.0069.1611c0 .8127-.2024 1.5782-.5596 2.2487-.8082 1.5027-2.3954 2.5242-4.2212 2.5242-.0731 0-.1452.0043-.2161.0125-2.5493-.1085-4.5827-2.2095-4.5827-4.7854v-.0041c-.0001-.3018-.0274-.5972-.0796-.8839-.4014-2.235-2.3184-3.9439-4.6492-4.0249a1.88178 1.88178 0 0 0-.1953-.0101c-.0472 0-.0943-.0007-.1412-.0021-.2462.0077-.488.0336-.7238.0763-2.2375.3993-3.94897 2.3175-4.02994 4.6501a1.8762 1.8762 0 0 0-.01016.1953c0 2.5971-2.067 4.7115-4.64564 4.7877a1.90555 1.90555 0 0 0-.16104-.0069c-.81276 0-1.57824-.2024-2.24877-.5596-1.50267-.8082-2.5242-2.3954-2.5242-4.2212A1.8731 1.8731 0 0 0 0 31.9951c.10845-2.5493 2.20947-4.5827 4.78542-4.5827h.00408c.29997-.0001.59364-.027.87872-.0787 2.23755-.3993 3.94907-2.3175 4.03003-4.6501a1.87345 1.87345 0 0 0 .01017-.1953c0-.0473.00068-.0943.00204-.1412a4.91836 4.91836 0 0 0-.0764-.7246c-.39964-2.2371-2.31766-3.9482-4.64994-4.0291a1.88144 1.88144 0 0 0-.19534-.0102c-2.59712 0-4.71146-2.067-4.7877-4.6456a1.87984 1.87984 0 0 0 .0069-.1611c0-.8127.20243-1.5782.55963-2.2487.80822-1.50271 2.3954-2.52422 4.22117-2.52423a1.8715 1.8715 0 0 0 .21612-.01245c2.54927.10845 4.58272 2.20948 4.58272 4.78538l.00001.0041Z" clip-rule="evenodd"/><path fill="#251D33" d="m50.6924 10.5293-5.7625 11.1763v5.2048h-4.5774v-5.2048l-5.7624-11.1763h5.2048l2.8812 6.3201 2.8812-6.3201h5.1351ZM58.155 27.073c-1.3012 0-2.4707-.271-3.5086-.8132-1.0224-.5422-1.8279-1.3167-2.4165-2.3236-.5886-1.0068-.8829-2.1919-.8829-3.555 0-1.3477.2943-2.5249.8829-3.5318.6041-1.0069 1.4174-1.7814 2.4397-2.3236 1.0379-.5421 2.2074-.8132 3.5086-.8132 1.3012 0 2.463.2711 3.4854.8132 1.0378.5422 1.8511 1.3167 2.4397 2.3236.6041 1.0069.9062 2.1841.9062 3.5318 0 1.3477-.3021 2.5327-.9062 3.555-.5886 1.0069-1.4019 1.7814-2.4397 2.3236-1.0379.5422-2.2074.8132-3.5086.8132Zm0-3.95c.6351 0 1.1618-.2324 1.58-.6971.4337-.4802.6506-1.1618.6506-2.0447 0-.883-.2169-1.5568-.6506-2.0215-.4182-.4647-.9372-.6971-1.5568-.6971-.6196 0-1.1385.2324-1.5568.6971-.4182.4647-.6273 1.1385-.6273 2.0215 0 .8984.2013 1.58.6041 2.0447.4027.4647.9217.6971 1.5568.6971ZM80.1996 13.8752v13.0352h-4.5774v-1.8589c-.3873.5887-.9217 1.0689-1.6033 1.4407-.6816.3562-1.4638.5344-2.3468.5344-1.518 0-2.7186-.4957-3.6015-1.4871-.8675-1.0069-1.3012-2.37-1.3012-4.0895v-7.5748h4.5309v6.9939c0 .7436.1937 1.3322.5809 1.7659.4028.4183.9295.6274 1.5801.6274.666 0 1.1927-.2091 1.58-.6274.3872-.4337.5809-1.0223.5809-1.7659v-6.9939h4.5774ZM91.3189 13.759c1.5026 0 2.6953.5035 3.5783 1.5104.8829.9913 1.3244 2.339 1.3244 4.043v7.598h-4.5542v-6.9939c0-.7436-.1936-1.3244-.5808-1.7427-.3873-.4337-.9062-.6506-1.5568-.6506-.6816 0-1.216.2169-1.6033.6506-.3873.4183-.5809.9991-.5809 1.7427v6.9939h-4.5542V13.8752h4.5542v1.8589c.4028-.5887.9449-1.0611 1.6265-1.4174.6816-.3718 1.4639-.5577 2.3468-.5577ZM103.53 13.7126c.883 0 1.65.1781 2.301.5344.666.3563 1.177.8365 1.533 1.4406v-1.8124h4.554V26.771c0 1.2237-.232 2.3235-.697 3.2994-.464.9914-1.192 1.7814-2.184 2.3701-.976.5886-2.215.8829-3.718.8829-2.013 0-3.624-.4724-4.833-1.4173-1.2078-.945-1.8971-2.2307-2.0675-3.8572h4.4845c.093.4183.325.7436.697.9759.372.2324.852.3486 1.441.3486 1.549 0 2.323-.8675 2.323-2.6024v-1.673c-.356.6041-.867 1.0843-1.533 1.4406-.651.3563-1.418.5344-2.301.5344-1.038 0-1.982-.271-2.834-.8132-.8369-.5422-1.503-1.3167-1.9987-2.3236-.4802-1.0223-.7203-2.2073-.7203-3.555 0-1.3477.2401-2.5249.7203-3.5318.4957-1.0069 1.1618-1.7814 1.9987-2.3236.852-.5421 1.796-.8132 2.834-.8132Zm3.834 6.6686c0-.8365-.232-1.4948-.697-1.975-.449-.4802-1.007-.7203-1.673-.7203-.681 0-1.247.2401-1.696.7203-.449.4647-.674 1.123-.674 1.975 0 .8365.225 1.5026.674 1.9983.449.4802 1.015.7203 1.696.7203.666 0 1.224-.2401 1.673-.7203.465-.4802.697-1.1463.697-1.9983ZM118.898 25.1904h5.67v1.7194h-7.784V10.7146h2.114v14.4758ZM127.905 12.1088c-.403 0-.743-.1395-1.022-.4183s-.418-.6196-.418-1.0224c0-.4027.139-.74349.418-1.02232.279-.27883.619-.41824 1.022-.41824.387 0 .713.13941.976.41824.279.27883.418.61962.418 1.02232 0 .4028-.139.7436-.418 1.0224-.263.2788-.589.4183-.976.4183Zm1.023 2.0679v12.7331h-2.115V14.1767h2.115ZM138.735 13.9444c1.549 0 2.804.4724 3.764 1.4173.961.9295 1.441 2.2771 1.441 4.043v7.5051h-2.091v-7.203c0-1.2702-.318-2.2384-.953-2.9045-.635-.6815-1.502-1.0223-2.602-1.0223-1.116 0-2.006.3485-2.672 1.0456-.651.6971-.976 1.7117-.976 3.0438v7.0404h-2.115V14.1767h2.115v1.8124c.418-.6506.983-1.154 1.696-1.5103.728-.3563 1.526-.5344 2.393-.5344ZM154.504 26.9098l-4.996-5.623v5.623h-2.114V9.71549h2.114V19.823l4.903-5.6463h2.951l-5.995 6.3433 6.018 6.3898h-2.881Z"/><defs><linearGradient id="a" x1="14.5044" x2="14.5044" y1="0" y2="37" gradientUnits="userSpaceOnUse"><stop stop-color="#5846CF"/><stop offset="1" stop-color="#E24747"/></linearGradient></defs></svg>