<svg width="24" height="25" viewBox="0 0 24 25" fill="none" xmlns="http://www.w3.org/2000/svg">
    <path d="M5.85 17.2641C6.7 16.6141 7.65 16.1016 8.7 15.7266C9.75 15.3516 10.85 15.1641 12 15.1641C13.15 15.1641 14.25 15.3516 15.3 15.7266C16.35 16.1016 17.3 16.6141 18.15 17.2641C18.7333 16.5807 19.1875 15.8057 19.5125 14.9391C19.8375 14.0724 20 13.1474 20 12.1641C20 9.9474 19.2208 8.0599 17.6625 6.50156C16.1042 4.94323 14.2167 4.16406 12 4.16406C9.78333 4.16406 7.89583 4.94323 6.3375 6.50156C4.77917 8.0599 4 9.9474 4 12.1641C4 13.1474 4.1625 14.0724 4.4875 14.9391C4.8125 15.8057 5.26667 16.5807 5.85 17.2641ZM12 13.1641C11.0167 13.1641 10.1875 12.8266 9.5125 12.1516C8.8375 11.4766 8.5 10.6474 8.5 9.66406C8.5 8.68073 8.8375 7.85156 9.5125 7.17656C10.1875 6.50156 11.0167 6.16406 12 6.16406C12.9833 6.16406 13.8125 6.50156 14.4875 7.17656C15.1625 7.85156 15.5 8.68073 15.5 9.66406C15.5 10.6474 15.1625 11.4766 14.4875 12.1516C13.8125 12.8266 12.9833 13.1641 12 13.1641ZM12 22.1641C10.6167 22.1641 9.31667 21.9016 8.1 21.3766C6.88333 20.8516 5.825 20.1391 4.925 19.2391C4.025 18.3391 3.3125 17.2807 2.7875 16.0641C2.2625 14.8474 2 13.5474 2 12.1641C2 10.7807 2.2625 9.48073 2.7875 8.26406C3.3125 7.0474 4.025 5.98906 4.925 5.08906C5.825 4.18906 6.88333 3.47656 8.1 2.95156C9.31667 2.42656 10.6167 2.16406 12 2.16406C13.3833 2.16406 14.6833 2.42656 15.9 2.95156C17.1167 3.47656 18.175 4.18906 19.075 5.08906C19.975 5.98906 20.6875 7.0474 21.2125 8.26406C21.7375 9.48073 22 10.7807 22 12.1641C22 13.5474 21.7375 14.8474 21.2125 16.0641C20.6875 17.2807 19.975 18.3391 19.075 19.2391C18.175 20.1391 17.1167 20.8516 15.9 21.3766C14.6833 21.9016 13.3833 22.1641 12 22.1641ZM12 20.1641C12.8833 20.1641 13.7167 20.0349 14.5 19.7766C15.2833 19.5182 16 19.1474 16.65 18.6641C16 18.1807 15.2833 17.8099 14.5 17.5516C13.7167 17.2932 12.8833 17.1641 12 17.1641C11.1167 17.1641 10.2833 17.2932 9.5 17.5516C8.71667 17.8099 8 18.1807 7.35 18.6641C8 19.1474 8.71667 19.5182 9.5 19.7766C10.2833 20.0349 11.1167 20.1641 12 20.1641ZM12 11.1641C12.4333 11.1641 12.7917 11.0224 13.075 10.7391C13.3583 10.4557 13.5 10.0974 13.5 9.66406C13.5 9.23073 13.3583 8.8724 13.075 8.58906C12.7917 8.30573 12.4333 8.16406 12 8.16406C11.5667 8.16406 11.2083 8.30573 10.925 8.58906C10.6417 8.8724 10.5 9.23073 10.5 9.66406C10.5 10.0974 10.6417 10.4557 10.925 10.7391C11.2083 11.0224 11.5667 11.1641 12 11.1641Z" fill="#251D33"/>
    </svg>
    