<svg xmlns="http://www.w3.org/2000/svg" width="25" height="25" viewBox="0 0 25 25" fill="none">
    <path d="M11.125 21.1641V19.1641H9.125V17.1641H11.125V15.0641C9.80833 14.8307 8.72917 14.2016 7.8875 13.1766C7.04583 12.1516 6.625 10.9641 6.625 9.61406C6.625 8.0974 7.1625 6.8099 8.2375 5.75156C9.3125 4.69323 10.6083 4.16406 12.125 4.16406C13.6417 4.16406 14.9375 4.69323 16.0125 5.75156C17.0875 6.8099 17.625 8.0974 17.625 9.61406C17.625 10.9641 17.2042 12.1516 16.3625 13.1766C15.5208 14.2016 14.4417 14.8307 13.125 15.0641V17.1641H15.125V19.1641H13.125V21.1641H11.125ZM12.125 13.1641C13.0917 13.1641 13.9167 12.8224 14.6 12.1391C15.2833 11.4557 15.625 10.6307 15.625 9.66406C15.625 8.6974 15.2833 7.8724 14.6 7.18906C13.9167 6.50573 13.0917 6.16406 12.125 6.16406C11.1583 6.16406 10.3333 6.50573 9.65 7.18906C8.96667 7.8724 8.625 8.6974 8.625 9.66406C8.625 10.6307 8.96667 11.4557 9.65 12.1391C10.3333 12.8224 11.1583 13.1641 12.125 13.1641Z" fill="#5846CF"/>
  </svg>