<svg width="25" height="25" viewBox="0 0 25 25" fill="none" xmlns="http://www.w3.org/2000/svg">
    <path d="M4.5 20.1641C3.95 20.1641 3.47917 19.9682 3.0875 19.5766C2.69583 19.1849 2.5 18.7141 2.5 18.1641V6.16406C2.5 5.61406 2.69583 5.14323 3.0875 4.75156C3.47917 4.3599 3.95 4.16406 4.5 4.16406H20.5C21.05 4.16406 21.5208 4.3599 21.9125 4.75156C22.3042 5.14323 22.5 5.61406 22.5 6.16406V10.1391H21.5L20.5 10.1641V8.16406L12.5 13.1641L4.5 8.16406V18.1641H16.5V20.1641H4.5ZM12.5 11.1641L20.5 6.16406H4.5L12.5 11.1641ZM19.5 20.1641C19.2167 20.1641 18.9792 20.0682 18.7875 19.8766C18.5958 19.6849 18.5 19.4474 18.5 19.1641V16.1641C18.5 15.8807 18.5958 15.6432 18.7875 15.4516C18.9792 15.2599 19.2167 15.1641 19.5 15.1641V14.1641C19.5 13.6141 19.6958 13.1432 20.0875 12.7516C20.4792 12.3599 20.95 12.1641 21.5 12.1641C22.05 12.1641 22.5208 12.3599 22.9125 12.7516C23.3042 13.1432 23.5 13.6141 23.5 14.1641V15.1641C23.7833 15.1641 24.0208 15.2599 24.2125 15.4516C24.4042 15.6432 24.5 15.8807 24.5 16.1641V19.1641C24.5 19.4474 24.4042 19.6849 24.2125 19.8766C24.0208 20.0682 23.7833 20.1641 23.5 20.1641H19.5ZM20.5 15.1641H22.5V14.1641C22.5 13.8807 22.4042 13.6432 22.2125 13.4516C22.0208 13.2599 21.7833 13.1641 21.5 13.1641C21.2167 13.1641 20.9792 13.2599 20.7875 13.4516C20.5958 13.6432 20.5 13.8807 20.5 14.1641V15.1641Z" fill="#251D33"/>
    </svg>
    