<svg xmlns="http://www.w3.org/2000/svg" width="25" height="25" viewBox="0 0 25 25" fill="none">
    <path d="M20.625 4.16406V10.1641H18.625V7.58906L14.65 11.5391C14.9667 12.0057 15.2083 12.5016 15.375 13.0266C15.5417 13.5516 15.625 14.0974 15.625 14.6641C15.625 16.1974 15.0917 17.4974 14.025 18.5641C12.9583 19.6307 11.6583 20.1641 10.125 20.1641C8.59167 20.1641 7.29167 19.6307 6.225 18.5641C5.15833 17.4974 4.625 16.1974 4.625 14.6641C4.625 13.1307 5.15833 11.8307 6.225 10.7641C7.29167 9.6974 8.59167 9.16406 10.125 9.16406C10.675 9.16406 11.2167 9.24323 11.75 9.40156C12.2833 9.5599 12.775 9.80573 13.225 10.1391L17.2 6.16406H14.625V4.16406H20.625ZM10.125 11.1641C9.15833 11.1641 8.33333 11.5057 7.65 12.1891C6.96667 12.8724 6.625 13.6974 6.625 14.6641C6.625 15.6307 6.96667 16.4557 7.65 17.1391C8.33333 17.8224 9.15833 18.1641 10.125 18.1641C11.0917 18.1641 11.9167 17.8224 12.6 17.1391C13.2833 16.4557 13.625 15.6307 13.625 14.6641C13.625 13.6974 13.2833 12.8724 12.6 12.1891C11.9167 11.5057 11.0917 11.1641 10.125 11.1641Z" fill="#E24747"/>
  </svg>